# xmcd CD database file
#
# Track frame offsets:
#	150
#	15832
#	34207
#	52237
#	62925
#	82810
#	97460
#	115200
#	135045
#	151912
#	162367
#	181160
#	203372
#
# Disc length: 2982 seconds
#
# Revision: 1
# Processed by: cddbd v1.5.1PL0 Copyright (c) Steve Scherf et al.
# Submitted via: CDex 1.50beta9
#
DISCID=9e0ba40d
DTITLE=Rick Moore And The Mr. Lucky Band - Slow Burning Fire
DYEAR=1999
DGENRE=Blues
TTITLE0=Talk To Me Baby
TTITLE1=Your Love Is Working Overtime
TTITLE2=Swingin' Her Stuff
TTITLE3=House Rockin'
TTITLE4=Let Me Down Easy
TTITLE5=Radio Station
TTITLE6=Good Woman Bad
TTITLE7=Muddy Water Fever
TTITLE8=Chicken House Blues
TTITLE9=Whole Lotta Woman
TTITLE10=Make Loving You My Business
TTITLE11=Tangled Up In Your Love
TTITLE12=Slow Burning Fire
EXTD=YEAR: 1999
EXTT0=
EXTT1=
EXTT2=
EXTT3=
EXTT4=
EXTT5=
EXTT6=
EXTT7=
EXTT8=
EXTT9=
EXTT10=
EXTT11=
EXTT12=
PLAYORDER=
